<svg width="38" height="30" viewBox="0 0 38 30" fill="none" xmlns="http://www.w3.org/2000/svg">
<path fill-rule="evenodd" clip-rule="evenodd" d="M21.498 13.1281C22.8633 8.92605 27.3765 6.62645 31.5786 7.99177C35.7806 9.35709 38.0802 13.8703 36.7149 18.0724C36.4873 18.7727 35.7351 19.156 35.0348 18.9284C34.3344 18.7009 33.9512 17.9487 34.1787 17.2483C35.0889 14.447 33.5559 11.4381 30.7545 10.5279C27.9532 9.61771 24.9443 11.1508 24.0341 13.9521C23.8066 14.6525 23.0544 15.0357 22.354 14.8082C21.6537 14.5806 21.2704 13.8284 21.498 13.1281ZM0.164636 6.46142C1.52996 2.25939 6.04319 -0.0402185 10.2452 1.3251C14.4473 2.69043 16.7469 7.20366 15.3815 11.4057C15.154 12.106 14.4018 12.4893 13.7014 12.2617C13.0011 12.0342 12.6178 11.282 12.8454 10.5816C13.7556 7.78029 12.2225 4.77147 9.42118 3.86125C6.61982 2.95104 3.611 4.48411 2.70079 7.28547C2.47323 7.9858 1.72103 8.36907 1.02069 8.14152C0.320348 7.91396 -0.0629175 7.16176 0.164636 6.46142ZM27.8596 25.9296C27.0838 27.4812 22.588 29.3437 18.5516 29.499C12.7643 29.7215 7.65018 26.9785 4.16538 20.6425C3.8105 19.9973 4.04588 19.1865 4.69111 18.8316C5.33633 18.4768 6.14708 18.7122 6.50195 19.3574C9.48878 24.788 13.6482 27.0189 18.4491 26.8343C20.2423 26.7653 22.0272 26.3462 23.5733 25.7056C24.1935 25.4487 24.7367 25.17 25.14 24.9114C25.3057 24.8051 25.4362 24.7094 25.5211 24.6353C25.5375 24.621 25.5257 24.6344 25.4744 24.737C25.8037 24.0783 26.6046 23.8114 27.2633 24.1407C27.9219 24.47 28.1889 25.2709 27.8596 25.9296Z" fill="black"/>
</svg>
