<svg width="172" height="17" viewBox="0 0 172 17" fill="none" xmlns="http://www.w3.org/2000/svg">
<path d="M6.288 12.112C5.24267 12.112 4.28267 11.8667 3.408 11.376C2.53333 10.8853 1.84 10.208 1.328 9.344C0.816 8.46933 0.56 7.48267 0.56 6.384C0.56 5.296 0.816 4.32 1.328 3.456C1.84 2.58133 2.53333 1.89867 3.408 1.408C4.28267 0.917333 5.24267 0.672 6.288 0.672C7.344 0.672 8.304 0.917333 9.168 1.408C10.0427 1.89867 10.7307 2.58133 11.232 3.456C11.744 4.32 12 5.296 12 6.384C12 7.48267 11.744 8.46933 11.232 9.344C10.7307 10.208 10.0427 10.8853 9.168 11.376C8.29333 11.8667 7.33333 12.112 6.288 12.112ZM6.288 10.112C6.96 10.112 7.552 9.96267 8.064 9.664C8.576 9.35467 8.976 8.91733 9.264 8.352C9.552 7.78667 9.696 7.13067 9.696 6.384C9.696 5.63733 9.552 4.98667 9.264 4.432C8.976 3.86667 8.576 3.43467 8.064 3.136C7.552 2.83733 6.96 2.688 6.288 2.688C5.616 2.688 5.01867 2.83733 4.496 3.136C3.984 3.43467 3.584 3.86667 3.296 4.432C3.008 4.98667 2.864 5.63733 2.864 6.384C2.864 7.13067 3.008 7.78667 3.296 8.352C3.584 8.91733 3.984 9.35467 4.496 9.664C5.01867 9.96267 5.616 10.112 6.288 10.112ZM22.0345 3.136V12H19.7785V10.88C19.4905 11.264 19.1118 11.568 18.6425 11.792C18.1838 12.0053 17.6825 12.112 17.1385 12.112C16.4452 12.112 15.8318 11.968 15.2985 11.68C14.7652 11.3813 14.3438 10.9493 14.0345 10.384C13.7358 9.808 13.5865 9.12533 13.5865 8.336V3.136H15.8265V8.016C15.8265 8.72 16.0025 9.264 16.3545 9.648C16.7065 10.0213 17.1865 10.208 17.7945 10.208C18.4132 10.208 18.8985 10.0213 19.2505 9.648C19.6025 9.264 19.7785 8.72 19.7785 8.016V3.136H22.0345ZM26.4846 4.512C26.7726 4.04267 27.146 3.67467 27.6046 3.408C28.074 3.14133 28.6073 3.008 29.2046 3.008V5.36H28.6126C27.9086 5.36 27.3753 5.52533 27.0126 5.856C26.6606 6.18667 26.4846 6.76267 26.4846 7.584V12H24.2446V3.136H26.4846V4.512ZM43.7899 0.832V12H41.5499V7.248H36.7659V12H34.5259V0.832H36.7659V5.424H41.5499V0.832H43.7899ZM45.4186 7.536C45.4186 6.64 45.5946 5.84533 45.9466 5.152C46.3093 4.45867 46.7946 3.92533 47.4026 3.552C48.0213 3.17867 48.7093 2.992 49.4666 2.992C50.128 2.992 50.704 3.12533 51.1946 3.392C51.696 3.65867 52.096 3.99467 52.3946 4.4V3.136H54.6506V12H52.3946V10.704C52.1066 11.12 51.7066 11.4667 51.1946 11.744C50.6933 12.0107 50.112 12.144 49.4506 12.144C48.704 12.144 48.0213 11.952 47.4026 11.568C46.7946 11.184 46.3093 10.6453 45.9466 9.952C45.5946 9.248 45.4186 8.44267 45.4186 7.536ZM52.3946 7.568C52.3946 7.024 52.288 6.56 52.0746 6.176C51.8613 5.78133 51.5733 5.48267 51.2106 5.28C50.848 5.06667 50.4586 4.96 50.0426 4.96C49.6266 4.96 49.2426 5.06133 48.8906 5.264C48.5386 5.46667 48.2506 5.76533 48.0266 6.16C47.8133 6.544 47.7066 7.00267 47.7066 7.536C47.7066 8.06933 47.8133 8.53867 48.0266 8.944C48.2506 9.33867 48.5386 9.64267 48.8906 9.856C49.2533 10.0693 49.6373 10.176 50.0426 10.176C50.4586 10.176 50.848 10.0747 51.2106 9.872C51.5733 9.65867 51.8613 9.36 52.0746 8.976C52.288 8.58133 52.3946 8.112 52.3946 7.568ZM59.0784 4.416C59.3664 4.01067 59.761 3.67467 60.2624 3.408C60.7744 3.13067 61.3557 2.992 62.0064 2.992C62.7637 2.992 63.4464 3.17867 64.0544 3.552C64.673 3.92533 65.1584 4.45867 65.5104 5.152C65.873 5.83467 66.0544 6.62933 66.0544 7.536C66.0544 8.44267 65.873 9.248 65.5104 9.952C65.1584 10.6453 64.673 11.184 64.0544 11.568C63.4464 11.952 62.7637 12.144 62.0064 12.144C61.3557 12.144 60.7797 12.0107 60.2784 11.744C59.7877 11.4773 59.3877 11.1413 59.0784 10.736V16.224H56.8384V3.136H59.0784V4.416ZM63.7664 7.536C63.7664 7.00267 63.6544 6.544 63.4304 6.16C63.217 5.76533 62.929 5.46667 62.5664 5.264C62.2144 5.06133 61.8304 4.96 61.4144 4.96C61.009 4.96 60.625 5.06667 60.2624 5.28C59.9104 5.48267 59.6224 5.78133 59.3984 6.176C59.185 6.57067 59.0784 7.03467 59.0784 7.568C59.0784 8.10133 59.185 8.56533 59.3984 8.96C59.6224 9.35467 59.9104 9.65867 60.2624 9.872C60.625 10.0747 61.009 10.176 61.4144 10.176C61.8304 10.176 62.2144 10.0693 62.5664 9.856C62.929 9.64267 63.217 9.33867 63.4304 8.944C63.6544 8.54933 63.7664 8.08 63.7664 7.536ZM69.9221 4.416C70.2101 4.01067 70.6048 3.67467 71.1061 3.408C71.6181 3.13067 72.1995 2.992 72.8501 2.992C73.6075 2.992 74.2901 3.17867 74.8981 3.552C75.5168 3.92533 76.0021 4.45867 76.3541 5.152C76.7168 5.83467 76.8981 6.62933 76.8981 7.536C76.8981 8.44267 76.7168 9.248 76.3541 9.952C76.0021 10.6453 75.5168 11.184 74.8981 11.568C74.2901 11.952 73.6075 12.144 72.8501 12.144C72.1995 12.144 71.6235 12.0107 71.1221 11.744C70.6315 11.4773 70.2315 11.1413 69.9221 10.736V16.224H67.6821V3.136H69.9221V4.416ZM74.6101 7.536C74.6101 7.00267 74.4981 6.544 74.2741 6.16C74.0608 5.76533 73.7728 5.46667 73.4101 5.264C73.0581 5.06133 72.6741 4.96 72.2581 4.96C71.8528 4.96 71.4688 5.06667 71.1061 5.28C70.7541 5.48267 70.4661 5.78133 70.2421 6.176C70.0288 6.57067 69.9221 7.03467 69.9221 7.568C69.9221 8.10133 70.0288 8.56533 70.2421 8.96C70.4661 9.35467 70.7541 9.65867 71.1061 9.872C71.4688 10.0747 71.8528 10.176 72.2581 10.176C72.6741 10.176 73.0581 10.0693 73.4101 9.856C73.7728 9.64267 74.0608 9.33867 74.2741 8.944C74.4981 8.54933 74.6101 8.08 74.6101 7.536ZM87.0059 3.136L81.5179 16.192H79.1339L81.0539 11.776L77.5019 3.136H80.0139L82.3019 9.328L84.6219 3.136H87.0059ZM91.4819 6.4C91.4819 5.30133 91.7272 4.32 92.2179 3.456C92.7192 2.58133 93.3965 1.904 94.2499 1.424C95.1139 0.933333 96.0792 0.688 97.1459 0.688C98.3939 0.688 99.4872 1.008 100.426 1.648C101.365 2.288 102.021 3.17333 102.394 4.304H99.8179C99.5619 3.77067 99.1992 3.37067 98.7299 3.104C98.2712 2.83733 97.7379 2.704 97.1299 2.704C96.4792 2.704 95.8979 2.85867 95.3859 3.168C94.8845 3.46667 94.4899 3.89333 94.2019 4.448C93.9245 5.00267 93.7859 5.65333 93.7859 6.4C93.7859 7.136 93.9245 7.78667 94.2019 8.352C94.4899 8.90667 94.8845 9.33867 95.3859 9.648C95.8979 9.94667 96.4792 10.096 97.1299 10.096C97.7379 10.096 98.2712 9.96267 98.7299 9.696C99.1992 9.41867 99.5619 9.01333 99.8179 8.48H102.394C102.021 9.62133 101.365 10.512 100.426 11.152C99.4979 11.7813 98.4045 12.096 97.1459 12.096C96.0792 12.096 95.1139 11.856 94.2499 11.376C93.3965 10.8853 92.7192 10.208 92.2179 9.344C91.7272 8.48 91.4819 7.49867 91.4819 6.4ZM112.675 3.136V12H110.419V10.88C110.131 11.264 109.752 11.568 109.283 11.792C108.824 12.0053 108.323 12.112 107.779 12.112C107.086 12.112 106.472 11.968 105.939 11.68C105.406 11.3813 104.984 10.9493 104.675 10.384C104.376 9.808 104.227 9.12533 104.227 8.336V3.136H106.467V8.016C106.467 8.72 106.643 9.264 106.995 9.648C107.347 10.0213 107.827 10.208 108.435 10.208C109.054 10.208 109.539 10.0213 109.891 9.648C110.243 9.264 110.419 8.72 110.419 8.016V3.136H112.675ZM118.277 12.144C117.552 12.144 116.901 12.016 116.325 11.76C115.749 11.4933 115.291 11.136 114.949 10.688C114.619 10.24 114.437 9.744 114.405 9.2H116.661C116.704 9.54133 116.869 9.824 117.157 10.048C117.456 10.272 117.824 10.384 118.261 10.384C118.688 10.384 119.019 10.2987 119.253 10.128C119.499 9.95733 119.621 9.73867 119.621 9.472C119.621 9.184 119.472 8.97067 119.173 8.832C118.885 8.68267 118.421 8.52267 117.781 8.352C117.12 8.192 116.576 8.02667 116.149 7.856C115.733 7.68533 115.371 7.424 115.061 7.072C114.763 6.72 114.613 6.24533 114.613 5.648C114.613 5.15733 114.752 4.70933 115.029 4.304C115.317 3.89867 115.723 3.57867 116.245 3.344C116.779 3.10933 117.403 2.992 118.117 2.992C119.173 2.992 120.016 3.25867 120.645 3.792C121.275 4.31467 121.621 5.024 121.685 5.92H119.541C119.509 5.568 119.36 5.29067 119.093 5.088C118.837 4.87467 118.491 4.768 118.053 4.768C117.648 4.768 117.333 4.84267 117.109 4.992C116.896 5.14133 116.789 5.34933 116.789 5.616C116.789 5.91467 116.939 6.144 117.237 6.304C117.536 6.45333 118 6.608 118.629 6.768C119.269 6.928 119.797 7.09333 120.213 7.264C120.629 7.43467 120.987 7.70133 121.285 8.064C121.595 8.416 121.755 8.88533 121.765 9.472C121.765 9.984 121.621 10.4427 121.333 10.848C121.056 11.2533 120.651 11.5733 120.117 11.808C119.595 12.032 118.981 12.144 118.277 12.144ZM126.212 4.976V9.264C126.212 9.56267 126.281 9.78133 126.42 9.92C126.569 10.048 126.815 10.112 127.156 10.112H128.196V12H126.788C124.9 12 123.956 11.0827 123.956 9.248V4.976H122.9V3.136H123.956V0.943999H126.212V3.136H128.196V4.976H126.212ZM133.743 12.144C132.89 12.144 132.122 11.9573 131.439 11.584C130.756 11.2 130.218 10.6613 129.823 9.968C129.439 9.27467 129.247 8.47467 129.247 7.568C129.247 6.66133 129.444 5.86133 129.839 5.168C130.244 4.47467 130.794 3.94133 131.487 3.568C132.18 3.184 132.954 2.992 133.807 2.992C134.66 2.992 135.434 3.184 136.127 3.568C136.82 3.94133 137.364 4.47467 137.759 5.168C138.164 5.86133 138.367 6.66133 138.367 7.568C138.367 8.47467 138.159 9.27467 137.743 9.968C137.338 10.6613 136.783 11.2 136.079 11.584C135.386 11.9573 134.607 12.144 133.743 12.144ZM133.743 10.192C134.148 10.192 134.527 10.096 134.879 9.904C135.242 9.70133 135.53 9.40267 135.743 9.008C135.956 8.61333 136.063 8.13333 136.063 7.568C136.063 6.72533 135.839 6.08 135.391 5.632C134.954 5.17333 134.415 4.944 133.775 4.944C133.135 4.944 132.596 5.17333 132.159 5.632C131.732 6.08 131.519 6.72533 131.519 7.568C131.519 8.41067 131.727 9.06133 132.143 9.52C132.57 9.968 133.103 10.192 133.743 10.192ZM151.018 3.008C152.106 3.008 152.981 3.344 153.642 4.016C154.314 4.67733 154.65 5.60533 154.65 6.8V12H152.41V7.104C152.41 6.41067 152.234 5.88267 151.882 5.52C151.53 5.14667 151.05 4.96 150.442 4.96C149.834 4.96 149.349 5.14667 148.986 5.52C148.634 5.88267 148.458 6.41067 148.458 7.104V12H146.218V7.104C146.218 6.41067 146.042 5.88267 145.69 5.52C145.338 5.14667 144.858 4.96 144.25 4.96C143.632 4.96 143.141 5.14667 142.778 5.52C142.426 5.88267 142.25 6.41067 142.25 7.104V12H140.01V3.136H142.25V4.208C142.538 3.83467 142.906 3.54133 143.354 3.328C143.813 3.11467 144.314 3.008 144.858 3.008C145.552 3.008 146.17 3.15733 146.714 3.456C147.258 3.744 147.68 4.16 147.978 4.704C148.266 4.192 148.682 3.78133 149.226 3.472C149.781 3.16267 150.378 3.008 151.018 3.008ZM165.016 7.376C165.016 7.696 164.995 7.984 164.952 8.24H158.472C158.525 8.88 158.749 9.38133 159.144 9.744C159.539 10.1067 160.024 10.288 160.6 10.288C161.432 10.288 162.024 9.93067 162.376 9.216H164.792C164.536 10.0693 164.045 10.7733 163.32 11.328C162.595 11.872 161.704 12.144 160.648 12.144C159.795 12.144 159.027 11.9573 158.344 11.584C157.672 11.2 157.144 10.6613 156.76 9.968C156.387 9.27467 156.2 8.47467 156.2 7.568C156.2 6.65067 156.387 5.84533 156.76 5.152C157.133 4.45867 157.656 3.92533 158.328 3.552C159 3.17867 159.773 2.992 160.648 2.992C161.491 2.992 162.243 3.17333 162.904 3.536C163.576 3.89867 164.093 4.416 164.456 5.088C164.829 5.74933 165.016 6.512 165.016 7.376ZM162.696 6.736C162.685 6.16 162.477 5.70133 162.072 5.36C161.667 5.008 161.171 4.832 160.584 4.832C160.029 4.832 159.56 5.00267 159.176 5.344C158.803 5.67467 158.573 6.13867 158.488 6.736H162.696ZM168.891 4.512C169.179 4.04267 169.552 3.67467 170.011 3.408C170.48 3.14133 171.014 3.008 171.611 3.008V5.36H171.019C170.315 5.36 169.782 5.52533 169.419 5.856C169.067 6.18667 168.891 6.76267 168.891 7.584V12H166.651V3.136H168.891V4.512Z" fill="#575757"/>
</svg>
